<svg width="200" height="200" viewBox="0 0 200 200" fill="none" xmlns="http://www.w3.org/2000/svg">
<rect width="200" height="200" fill="#090707"/>
<path d="M21 24L21 111.12L21 200" stroke="#403232"/>
<path d="M181 0L182.03 86.68L181 176" stroke="#403232"/>
<path d="M165 24L166.03 110.68L165 200" stroke="#261E1E"/>
<path d="M41 0L42.0304 86.68L41 176" stroke="#191907"/>
<line x1="200" y1="176.5" x2="-4.37114e-08" y2="176.5" stroke="#403232"/>
<line x1="200" y1="24.5" x2="-4.37114e-08" y2="24.5" stroke="#403232"/>
<path d="M70.4545 135V65.1818H94.8636C99.7273 65.1818 103.739 66.0227 106.898 67.7045C110.057 69.3636 112.409 71.6023 113.955 74.4205C115.5 77.2159 116.273 80.3182 116.273 83.7273C116.273 86.7273 115.739 89.2045 114.67 91.1591C113.625 93.1136 112.239 94.6591 110.511 95.7955C108.807 96.9318 106.955 97.7727 104.955 98.3182V99C107.091 99.1364 109.239 99.8864 111.398 101.25C113.557 102.614 115.364 104.568 116.818 107.114C118.273 109.659 119 112.773 119 116.455C119 119.955 118.205 123.102 116.614 125.898C115.023 128.693 112.511 130.909 109.08 132.545C105.648 134.182 101.182 135 95.6818 135H70.4545ZM78.9091 127.5H95.6818C101.205 127.5 105.125 126.432 107.443 124.295C109.784 122.136 110.955 119.523 110.955 116.455C110.955 114.091 110.352 111.909 109.148 109.909C107.943 107.886 106.227 106.273 104 105.068C101.773 103.841 99.1364 103.227 96.0909 103.227H78.9091V127.5ZM78.9091 95.8636H94.5909C97.1364 95.8636 99.4318 95.3636 101.477 94.3636C103.545 93.3636 105.182 91.9545 106.386 90.1364C107.614 88.3182 108.227 86.1818 108.227 83.7273C108.227 80.6591 107.159 78.0568 105.023 75.9205C102.886 73.7614 99.5 72.6818 94.8636 72.6818H78.9091V95.8636Z" fill="#EA580B"/>
<path d="M136.5 124.438C136.691 124.438 136.873 124.513 137.008 124.648C137.143 124.783 137.219 124.966 137.219 125.156V129.469C137.219 129.659 137.143 129.842 137.008 129.977C136.873 130.112 136.691 130.188 136.5 130.188C136.309 130.188 136.127 130.112 135.992 129.977C135.857 129.842 135.781 129.659 135.781 129.469V125.156C135.781 124.966 135.857 124.783 135.992 124.648C136.127 124.513 136.309 124.438 136.5 124.438ZM136.5 138.812C136.691 138.812 136.873 138.888 137.008 139.023C137.143 139.158 137.219 139.341 137.219 139.531V143.844C137.219 144.034 137.143 144.217 137.008 144.352C136.873 144.487 136.691 144.562 136.5 144.562C136.309 144.562 136.127 144.487 135.992 144.352C135.857 144.217 135.781 144.034 135.781 143.844V139.531C135.781 139.341 135.857 139.158 135.992 139.023C136.127 138.888 136.309 138.812 136.5 138.812ZM146.562 134.5C146.562 134.691 146.487 134.873 146.352 135.008C146.217 135.143 146.034 135.219 145.844 135.219H141.531C141.341 135.219 141.158 135.143 141.023 135.008C140.888 134.873 140.812 134.691 140.812 134.5C140.812 134.309 140.888 134.127 141.023 133.992C141.158 133.857 141.341 133.781 141.531 133.781H145.844C146.034 133.781 146.217 133.857 146.352 133.992C146.487 134.127 146.562 134.309 146.562 134.5ZM132.188 134.5C132.188 134.691 132.112 134.873 131.977 135.008C131.842 135.143 131.659 135.219 131.469 135.219H127.156C126.966 135.219 126.783 135.143 126.648 135.008C126.513 134.873 126.438 134.691 126.438 134.5C126.438 134.309 126.513 134.127 126.648 133.992C126.783 133.857 126.966 133.781 127.156 133.781H131.469C131.659 133.781 131.842 133.857 131.977 133.992C132.112 134.127 132.188 134.309 132.188 134.5ZM129.384 127.384C129.519 127.25 129.702 127.174 129.893 127.174C130.083 127.174 130.266 127.25 130.401 127.384L133.453 130.435C133.583 130.57 133.656 130.752 133.654 130.94C133.653 131.129 133.577 131.309 133.444 131.442C133.31 131.576 133.13 131.651 132.942 131.653C132.753 131.654 132.572 131.582 132.436 131.451L129.384 128.401C129.25 128.266 129.174 128.083 129.174 127.893C129.174 127.702 129.25 127.519 129.384 127.384ZM139.549 137.549C139.684 137.414 139.867 137.338 140.057 137.338C140.248 137.338 140.43 137.414 140.565 137.549L143.616 140.599C143.747 140.735 143.819 140.916 143.817 141.105C143.816 141.293 143.74 141.474 143.607 141.607C143.474 141.74 143.293 141.816 143.105 141.817C142.916 141.819 142.735 141.747 142.599 141.616L139.549 138.565C139.414 138.43 139.338 138.248 139.338 138.057C139.338 137.867 139.414 137.684 139.549 137.549ZM143.616 127.386C143.75 127.521 143.825 127.703 143.825 127.893C143.825 128.083 143.75 128.266 143.616 128.401L140.565 131.453C140.43 131.583 140.248 131.656 140.06 131.654C139.871 131.653 139.691 131.577 139.558 131.444C139.424 131.31 139.349 131.13 139.347 130.942C139.346 130.753 139.418 130.572 139.549 130.436L142.599 127.386C142.734 127.251 142.917 127.175 143.107 127.175C143.298 127.175 143.481 127.251 143.616 127.386ZM133.451 137.549C133.586 137.684 133.662 137.867 133.662 138.057C133.662 138.248 133.586 138.43 133.451 138.565L130.401 141.616C130.265 141.747 130.084 141.819 129.895 141.817C129.707 141.816 129.526 141.74 129.393 141.607C129.26 141.474 129.184 141.293 129.183 141.105C129.181 140.916 129.253 140.735 129.384 140.599L132.435 137.549C132.57 137.414 132.752 137.338 132.943 137.338C133.133 137.338 133.316 137.414 133.451 137.549Z" fill="#EA580B"/>
</svg>
