<svg width="200" height="200" viewBox="0 0 200 200" fill="none" xmlns="http://www.w3.org/2000/svg">
<g clip-path="url(#clip0_419_33)">
<path d="M200 0H0V200H200V0Z" fill="#090707"/>
<path d="M21 24V111.12V200" stroke="#403232"/>
<path d="M181 0L182.03 86.68L181 176" stroke="#403232"/>
<path d="M165 24L166.03 110.68L165 200" stroke="#261E1E"/>
<path d="M41 0L42.0304 86.68L41 176" stroke="#191907"/>
<path d="M200 176.5H0" stroke="#403232"/>
<path d="M200 24.5H0" stroke="#403232"/>
<g clip-path="url(#clip1_419_33)">
<path d="M54 65H77.25V88.3333H100.5V65H123.75H147V88.3333V111.667V135H123.75V111.667V88.3333H100.5V111.667H77.25V135H54V111.667V88.3333V65Z" fill="#D9D9D9"/>
</g>
</g>
<defs>
<clipPath id="clip0_419_33">
<rect width="200" height="200" fill="white"/>
</clipPath>
<clipPath id="clip1_419_33">
<rect width="93" height="70" fill="white" transform="translate(54 65)"/>
</clipPath>
</defs>
</svg>
