<svg width="200" height="200" viewBox="0 0 200 200" fill="none" xmlns="http://www.w3.org/2000/svg">
<rect width="200" height="200" fill="#D9D9D9"/>
<line x1="21.5" y1="2.18557e-08" x2="21.5" y2="200" stroke="#C4C4C4"/>
<line x1="173.5" y1="2.18557e-08" x2="173.5" y2="200" stroke="#C4C4C4"/>
<line x1="200" y1="176.5" x2="-4.37114e-08" y2="176.5" stroke="#C4C4C4"/>
<line x1="200" y1="24.5" x2="-4.37114e-08" y2="24.5" stroke="#C4C4C4"/>
<path d="M61.5886 137.741V47.2357H93.1952C99.493 47.2357 104.687 48.3258 108.778 50.5059C112.868 52.6566 115.914 55.5585 117.915 59.2117C119.917 62.8355 120.917 66.857 120.917 71.2762C120.917 75.165 120.226 78.3762 118.843 80.91C117.489 83.4436 115.694 85.447 113.457 86.9201C111.25 88.3931 108.851 89.4832 106.262 90.1903V91.0741C109.028 91.2509 111.809 92.2231 114.605 93.9908C117.4 95.7584 119.74 98.2921 121.624 101.592C123.507 104.891 124.449 108.928 124.449 113.7C124.449 118.237 123.419 122.318 121.359 125.941C119.299 129.565 116.047 132.438 111.603 134.559C107.159 136.68 101.376 137.741 94.2546 137.741H61.5886ZM72.5361 128.019H94.2546C101.406 128.019 106.482 126.634 109.484 123.865C112.515 121.066 114.031 117.678 114.031 113.7C114.031 110.636 113.251 107.808 111.691 105.216C110.132 102.594 107.91 100.502 105.026 98.9403C102.142 97.3493 98.7279 96.5539 94.7844 96.5539H72.5361V128.019ZM72.5361 87.0084H92.8421C96.1382 87.0084 99.1104 86.3603 101.759 85.064C104.437 83.7677 106.556 81.941 108.116 79.5843C109.705 77.2273 110.499 74.4579 110.499 71.2762C110.499 67.2989 109.116 63.9255 106.35 61.1562C103.584 58.3573 99.1987 56.9579 93.1952 56.9579H72.5361V87.0084Z" fill="#EA580B"/>
<path d="M147.109 124.049C147.356 124.049 147.592 124.147 147.767 124.321C147.942 124.496 148.04 124.733 148.04 124.98V130.571C148.04 130.818 147.942 131.055 147.767 131.229C147.592 131.404 147.356 131.502 147.109 131.502C146.862 131.502 146.625 131.404 146.451 131.229C146.276 131.055 146.178 130.818 146.178 130.571V124.98C146.178 124.733 146.276 124.496 146.451 124.321C146.625 124.147 146.862 124.049 147.109 124.049ZM147.109 142.683C147.356 142.683 147.592 142.781 147.767 142.956C147.942 143.13 148.04 143.367 148.04 143.614V149.205C148.04 149.452 147.942 149.689 147.767 149.864C147.592 150.038 147.356 150.137 147.109 150.137C146.862 150.137 146.625 150.038 146.451 149.864C146.276 149.689 146.178 149.452 146.178 149.205V143.614C146.178 143.367 146.276 143.13 146.451 142.956C146.625 142.781 146.862 142.683 147.109 142.683ZM160.139 137.093C160.139 137.34 160.041 137.577 159.866 137.751C159.692 137.926 159.455 138.024 159.208 138.024H153.624C153.377 138.024 153.14 137.926 152.966 137.751C152.791 137.577 152.693 137.34 152.693 137.093C152.693 136.845 152.791 136.609 152.966 136.434C153.14 136.259 153.377 136.161 153.624 136.161H159.208C159.455 136.161 159.692 136.259 159.866 136.434C160.041 136.609 160.139 136.845 160.139 137.093ZM141.525 137.093C141.525 137.34 141.427 137.577 141.252 137.751C141.078 137.926 140.841 138.024 140.594 138.024H135.01C134.763 138.024 134.526 137.926 134.352 137.751C134.177 137.577 134.079 137.34 134.079 137.093C134.079 136.845 134.177 136.609 134.352 136.434C134.526 136.259 134.763 136.161 135.01 136.161H140.594C140.841 136.161 141.078 136.259 141.252 136.434C141.427 136.609 141.525 136.845 141.525 137.093ZM137.895 127.869C138.07 127.694 138.306 127.596 138.553 127.596C138.8 127.596 139.037 127.694 139.211 127.869L143.163 131.823C143.332 131.999 143.426 132.234 143.424 132.478C143.422 132.722 143.324 132.956 143.151 133.129C142.979 133.302 142.746 133.4 142.502 133.402C142.257 133.404 142.022 133.31 141.847 133.14L137.895 129.186C137.721 129.011 137.623 128.774 137.623 128.527C137.623 128.28 137.721 128.043 137.895 127.869ZM151.057 141.045C151.231 140.87 151.468 140.772 151.715 140.772C151.962 140.772 152.198 140.87 152.373 141.045L156.323 144.999C156.492 145.175 156.586 145.41 156.584 145.654C156.582 145.899 156.484 146.132 156.312 146.305C156.139 146.478 155.905 146.576 155.661 146.578C155.417 146.58 155.182 146.486 155.007 146.316L151.057 142.362C150.882 142.188 150.784 141.951 150.784 141.704C150.784 141.457 150.882 141.22 151.057 141.045ZM156.323 127.87C156.497 128.045 156.594 128.282 156.594 128.528C156.594 128.775 156.497 129.011 156.323 129.186L152.373 133.142C152.197 133.312 151.962 133.406 151.718 133.404C151.474 133.401 151.241 133.303 151.068 133.131C150.896 132.958 150.798 132.724 150.796 132.48C150.794 132.236 150.887 132 151.057 131.825L155.007 127.87C155.181 127.696 155.418 127.598 155.665 127.598C155.912 127.598 156.148 127.696 156.323 127.87ZM143.161 141.045C143.335 141.22 143.433 141.457 143.433 141.704C143.433 141.951 143.335 142.188 143.161 142.362L139.211 146.316C139.036 146.486 138.801 146.58 138.556 146.578C138.313 146.576 138.079 146.478 137.906 146.305C137.734 146.132 137.636 145.899 137.634 145.654C137.632 145.41 137.726 145.175 137.895 144.999L141.845 141.045C142.019 140.87 142.256 140.772 142.503 140.772C142.75 140.772 142.986 140.87 143.161 141.045Z" fill="#EA580B"/>
</svg>
